<svg xmlns="http://www.w3.org/2000/svg" fill="#4147E8" viewBox="0 0 344 346" style="enable-background:new 0 0 344 346" xml:space="preserve"><path d="M172 3C77 3 0 80 0 175s77 172 172 172 172-77 172-172S267 3 172 3zm-52.4 262.2H77.7V130.5h41.9v134.7zM98.6 112c-13.4 0-24.3-10.9-24.3-24.3s10.9-24.3 24.3-24.3 24.3 10.9 24.3 24.3S112 112 98.6 112zm177.7 153.2h-41.8v-65.5c0-15.6-.3-35.7-21.8-35.7-21.8 0-25.1 17-25.1 34.6v66.7h-41.8V130.5H186v18.4h.5c8.2-14 23.4-22.4 39.6-21.8 42.4 0 50.2 27.9 50.2 64.2v73.9z"/></svg>