<svg viewBox="0 0 64 64" xmlns="http://www.w3.org/2000/svg"><defs><style>.cls-1{fill:none;stroke:#000;stroke-linejoin:round;stroke-width:2px}</style></defs><g data-name="Layer 22" id="Layer_22"><path class="cls-1" d="M40 52v-2l-5.49-4.8A7.39 7.39 0 0 1 32 39.66V34a4 4 0 0 1 4-4 4 4 0 0 1 4 4v2"/><path class="cls-1" d="M36 30v-4a8 8 0 0 1 8-8h10a8 8 0 0 1 8 8v9.51A20.49 20.49 0 0 1 56 50v2M38 52h20v10H38zM36 26h26"/><path class="cls-1" d="M38 56h6v6M24 52v-2l5.49-4.8A7.39 7.39 0 0 0 32 39.66V34a4 4 0 0 0-4-4 4 4 0 0 0-4 4v2"/><path class="cls-1" d="M28 30v-4a8 8 0 0 0-8-8H10a8 8 0 0 0-8 8v9.51A20.49 20.49 0 0 0 8 50v2"/><path class="cls-1" transform="rotate(-180 16 57)" d="M6 52h20v10H6z"/><path class="cls-1" d="M28 26H2M26 56h-6v6M24 15l-5-5h7l-3-6 7 3 2-5 3 5 5-3-2 6h7l-5 5"/></g></svg>